# xmcd
#
# Track frame offsets:
#	182
#	12590
#	24247
#	35400
#	50140
#	65625
#	78397
#	87312
#	105762
#	118942
#	133075
#	148040
#	157260
#	167395
#	180435
#	195392
#	208325
#	220217
#	233665
#	246545
#
# Disc length: 3604
#
# Revision: 3
# Processed by: cddbd v1.5.1PL0 Copyright (c) Steve Scherf et al.
# Submitted via: dBpowerAMP V4.0
# Normalized: r1:TDELIM( - );r2:TSWAP
#
DISCID=1e0e1214
DTITLE=The World's Greatest Songs - Country Novelty Disc 1
DYEAR=1996
DGENRE=Country
TTITLE0=Jack Blanchard And Misty Moragan - Tennessee Bird Walk
TTITLE1=Boxcar Willie - Country Music Nightmare
TTITLE2=Don Bowman - Chit akins, Make me A Star
TTITLE3=Chet Atkins And Ray Stevens - Frog Kissin'
TTITLE4=Dick Feller - The Credit Card Song
TTITLE5=Johnny Cash - The One On The Right Is On The Left
TTITLE6=Andy Griffith - The Fishin' Hole
TTITLE7=C.W. McCall - "Round The World With The Rubber Duck
TTITLE8=Leroy Van Dyke - The Auctioneer
TTITLE9=Lonzo And Oscar - I'm My Own Grandpaw
TTITLE10=Jerry Reed - Lord, Mr. Ford
TTITLE11=Mac Wiseman - Johnny's Cash and Charley's Pride
TTITLE12=Jack Barlow (Zoot Fenster) - The Man On Page 602
TTITLE13=Moe Bandy and Joe Stampley - Where's The Dress
TTITLE14=Ben Colder - Almost Persuaded #2
TTITLE15=Fannie Flagg - Susie Sweetwater Local Wedding
TTITLE16=Homer And Jethro - That's Good...That's Bad
TTITLE17=Tex Williams - Smoke! Smoke! Smoke! (That Cigarette)
TTITLE18=Johnny Russell - Rednecks, White Socks And Blue Ribbon Beer
TTITLE19=Bobby Bare - The Winner
EXTD=
EXTT0=
EXTT1=
EXTT2=
EXTT3=
EXTT4=
EXTT5=
EXTT6=
EXTT7=
EXTT8=
EXTT9=
EXTT10=
EXTT11=
EXTT12=
EXTT13=
EXTT14=
EXTT15=
EXTT16=
EXTT17=
EXTT18=
EXTT19=
PLAYORDER=
